<mxfile host="Electron" modified="2023-12-14T03:43:28.613Z" agent="Mozilla/5.0 (Macintosh; Intel Mac OS X 10_15_7) AppleWebKit/537.36 (KHTML, like Gecko) draw.io/22.1.2 Chrome/114.0.5735.289 Electron/25.9.4 Safari/537.36" etag="LWOIaWA7nvQjRaroJ3Ow" version="22.1.2" type="device">
  <diagram name="第 1 页" id="xs7N9w-LIiPhgalxne0f">
    <mxGraphModel dx="1438" dy="999" grid="1" gridSize="10" guides="1" tooltips="1" connect="1" arrows="1" fold="1" page="1" pageScale="1" pageWidth="827" pageHeight="1169" math="0" shadow="0">
      <root>
        <mxCell id="0" />
        <mxCell id="1" parent="0" />
        <mxCell id="LtjOXkMhElDGkFHknf5r-1" value="设备月利用率" style="rounded=0;whiteSpace=wrap;html=1;" vertex="1" parent="1">
          <mxGeometry x="414" y="350" width="120" height="60" as="geometry" />
        </mxCell>
        <mxCell id="LtjOXkMhElDGkFHknf5r-2" value="" style="endArrow=none;html=1;rounded=0;" edge="1" parent="1">
          <mxGeometry width="50" height="50" relative="1" as="geometry">
            <mxPoint x="70" y="440" as="sourcePoint" />
            <mxPoint x="730" y="440" as="targetPoint" />
          </mxGeometry>
        </mxCell>
        <mxCell id="LtjOXkMhElDGkFHknf5r-3" value="报表" style="text;html=1;strokeColor=none;fillColor=none;align=center;verticalAlign=middle;whiteSpace=wrap;rounded=0;" vertex="1" parent="1">
          <mxGeometry x="40" y="390" width="60" height="30" as="geometry" />
        </mxCell>
        <mxCell id="LtjOXkMhElDGkFHknf5r-4" value="指标" style="text;html=1;strokeColor=none;fillColor=none;align=center;verticalAlign=middle;whiteSpace=wrap;rounded=0;" vertex="1" parent="1">
          <mxGeometry x="40" y="450" width="60" height="30" as="geometry" />
        </mxCell>
        <mxCell id="LtjOXkMhElDGkFHknf5r-19" style="edgeStyle=orthogonalEdgeStyle;rounded=0;orthogonalLoop=1;jettySize=auto;html=1;exitX=0.5;exitY=0;exitDx=0;exitDy=0;entryX=0.5;entryY=1;entryDx=0;entryDy=0;" edge="1" parent="1" source="LtjOXkMhElDGkFHknf5r-5" target="LtjOXkMhElDGkFHknf5r-1">
          <mxGeometry relative="1" as="geometry" />
        </mxCell>
        <mxCell id="LtjOXkMhElDGkFHknf5r-5" value="工厂设备月利用率" style="rounded=0;whiteSpace=wrap;html=1;" vertex="1" parent="1">
          <mxGeometry x="414" y="480" width="120" height="60" as="geometry" />
        </mxCell>
        <mxCell id="LtjOXkMhElDGkFHknf5r-17" style="edgeStyle=orthogonalEdgeStyle;rounded=0;orthogonalLoop=1;jettySize=auto;html=1;exitX=1;exitY=0.5;exitDx=0;exitDy=0;entryX=0;entryY=0.5;entryDx=0;entryDy=0;" edge="1" parent="1" source="LtjOXkMhElDGkFHknf5r-6" target="LtjOXkMhElDGkFHknf5r-5">
          <mxGeometry relative="1" as="geometry" />
        </mxCell>
        <mxCell id="LtjOXkMhElDGkFHknf5r-6" value="工厂设备日利用率" style="rounded=0;whiteSpace=wrap;html=1;" vertex="1" parent="1">
          <mxGeometry x="180" y="480" width="120" height="60" as="geometry" />
        </mxCell>
        <mxCell id="LtjOXkMhElDGkFHknf5r-9" style="edgeStyle=orthogonalEdgeStyle;rounded=0;orthogonalLoop=1;jettySize=auto;html=1;exitX=0.5;exitY=0;exitDx=0;exitDy=0;entryX=0.5;entryY=1;entryDx=0;entryDy=0;" edge="1" parent="1" source="LtjOXkMhElDGkFHknf5r-8" target="LtjOXkMhElDGkFHknf5r-6">
          <mxGeometry relative="1" as="geometry" />
        </mxCell>
        <mxCell id="LtjOXkMhElDGkFHknf5r-18" style="edgeStyle=orthogonalEdgeStyle;rounded=0;orthogonalLoop=1;jettySize=auto;html=1;exitX=1;exitY=0.5;exitDx=0;exitDy=0;" edge="1" parent="1" source="LtjOXkMhElDGkFHknf5r-8" target="LtjOXkMhElDGkFHknf5r-16">
          <mxGeometry relative="1" as="geometry" />
        </mxCell>
        <mxCell id="LtjOXkMhElDGkFHknf5r-8" value="产线设备日利用率" style="rounded=0;whiteSpace=wrap;html=1;" vertex="1" parent="1">
          <mxGeometry x="180" y="600" width="120" height="60" as="geometry" />
        </mxCell>
        <mxCell id="LtjOXkMhElDGkFHknf5r-11" style="edgeStyle=orthogonalEdgeStyle;rounded=0;orthogonalLoop=1;jettySize=auto;html=1;exitX=0.5;exitY=0;exitDx=0;exitDy=0;entryX=0.5;entryY=1;entryDx=0;entryDy=0;" edge="1" parent="1" source="LtjOXkMhElDGkFHknf5r-10" target="LtjOXkMhElDGkFHknf5r-8">
          <mxGeometry relative="1" as="geometry" />
        </mxCell>
        <mxCell id="LtjOXkMhElDGkFHknf5r-13" style="edgeStyle=orthogonalEdgeStyle;rounded=0;orthogonalLoop=1;jettySize=auto;html=1;exitX=1;exitY=0.5;exitDx=0;exitDy=0;entryX=0;entryY=0.5;entryDx=0;entryDy=0;" edge="1" parent="1" source="LtjOXkMhElDGkFHknf5r-10" target="LtjOXkMhElDGkFHknf5r-12">
          <mxGeometry relative="1" as="geometry" />
        </mxCell>
        <mxCell id="LtjOXkMhElDGkFHknf5r-10" value="设备日利用率" style="rounded=0;whiteSpace=wrap;html=1;" vertex="1" parent="1">
          <mxGeometry x="180" y="710" width="120" height="60" as="geometry" />
        </mxCell>
        <mxCell id="LtjOXkMhElDGkFHknf5r-12" value="设备月利用率" style="rounded=0;whiteSpace=wrap;html=1;" vertex="1" parent="1">
          <mxGeometry x="420" y="710" width="120" height="60" as="geometry" />
        </mxCell>
        <mxCell id="LtjOXkMhElDGkFHknf5r-15" style="edgeStyle=orthogonalEdgeStyle;rounded=0;orthogonalLoop=1;jettySize=auto;html=1;exitX=0.5;exitY=0;exitDx=0;exitDy=0;entryX=0.5;entryY=1;entryDx=0;entryDy=0;" edge="1" parent="1" source="LtjOXkMhElDGkFHknf5r-14" target="LtjOXkMhElDGkFHknf5r-10">
          <mxGeometry relative="1" as="geometry" />
        </mxCell>
        <mxCell id="LtjOXkMhElDGkFHknf5r-14" value="设备运行时长" style="rounded=0;whiteSpace=wrap;html=1;" vertex="1" parent="1">
          <mxGeometry x="180" y="830" width="120" height="60" as="geometry" />
        </mxCell>
        <mxCell id="LtjOXkMhElDGkFHknf5r-16" value="产线设备月利用率" style="rounded=0;whiteSpace=wrap;html=1;" vertex="1" parent="1">
          <mxGeometry x="414" y="600" width="120" height="60" as="geometry" />
        </mxCell>
      </root>
    </mxGraphModel>
  </diagram>
</mxfile>
